<?xml version="1.0" encoding="UTF-8"?><svg id="Calque_1" xmlns="http://www.w3.org/2000/svg" viewBox="0 0 210.49 69"><defs><style>.cls-1{fill:#ffa04a;stroke-width:0px;}</style></defs><g id="bongoCat"><path class="cls-1" d="M.66,62.05l8.93-2.08c.04-1.39.23-4.61,1.19-7.06,1.01-2.55,2.79-5.3,3.44-6.26-1.27-4.25-3.1-11.15-2.18-12.64.82-1.32,4.29-.9,10.32,1.25,1.34-.85,6.12-3.84,10.48-5.83,4.29-1.96,8.9-3.12,10.33-3.45.78-1.84,2.79-6.03,5.01-6.12,2.19-.09,4.52,4.08,5.46,6,1.28.04,4.46.37,7.54,2.63,2.27,1.66,4.77,4.7,6.07,6.74.04-.05.07-.1.11-.16.77-1.18,2.83-4.31,7.04-2.87,4.87,1.66,4.34,5.69,4.14,7.21-.17,1.27-.49,3.32-.7,4.64l9.96-2.32c.46-.11.91.18,1.02.63.11.46-.18.92-.63,1.02L1.04,63.71c-.07.02-.13.02-.19.02-.39,0-.74-.26-.83-.66-.11-.46.18-.92.63-1.02ZM76.86,39.19c.26-2.02.27-4.27-3-5.38-2.73-.93-4.05.65-5.07,2.2-.1.15-.19.29-.27.39l-.1.13c-.67.93-1.31,1.8-2.69,2.29-.44.16-.93-.07-1.09-.52-.16-.44.07-.93.52-1.09.4-.14.7-.34.96-.59-.99-1.71-3.56-5.03-5.95-6.78-3.4-2.49-6.99-2.3-7.02-2.31-.37.02-.68-.17-.83-.49-1.36-2.9-3.29-5.51-4.07-5.51h-.01c-.88.04-2.64,2.91-3.67,5.47-.11.26-.33.45-.61.51-.05.01-5.54,1.2-10.42,3.43-4.9,2.24-10.56,5.9-10.61,5.94-.22.15-.5.18-.75.09-3.91-1.42-7.8-2.32-8.7-2.03-.26,1.2,1.06,6.85,2.49,11.58.08.25.03.52-.12.73-.02.03-2.34,3.36-3.48,6.25-.77,1.96-.99,4.59-1.06,6.04l19.61-4.57c.28-.83.88-2.57,1.04-3.1.26-.8,1.05-5.64-1.55-7.8-1.97-1.63-3.88-1.39-5.01-.62-.61.41-1.1,1.44-1.57,2.44-.65,1.37-1.33,2.78-2.58,3.48-.41.23-.93.08-1.16-.33-.23-.41-.08-.93.33-1.16.78-.43,1.33-1.59,1.87-2.72.57-1.2,1.16-2.44,2.15-3.11,1.57-1.06,4.35-1.52,7.05.72,3.35,2.78,2.48,8.39,2.09,9.63-.12.36-.43,1.3-.71,2.13l43.18-10.07c.19-1.15.61-3.79.8-5.28Z"/><circle class="cls-1" cx="38.07" cy="42.5" r="2.6"/><circle class="cls-1" cx="57.36" cy="37.35" r="2.6"/><path class="cls-1" d="M46.14,42.35c.18.21.45.47.67.43.5-.06,1.19-1.03,1.49-1.69.11-.25.34-.42.6-.48.26-.05.54.02.74.2.54.49,1.55,1.07,2.02.9.28-.1.49-.59.59-1.34.06-.47.49-.79.96-.73.47.06.79.49.73.96-.2,1.46-.77,2.37-1.7,2.71-1.03.38-2.15-.13-2.9-.6-.48.73-1.27,1.63-2.31,1.77-.08.01-.17.02-.27.02-.54,0-1.25-.21-1.94-1.05-.3-.36-.25-.9.12-1.2.36-.3.9-.25,1.2.12Z"/></g><g id="Steve"><path class="cls-1" d="M170.25,12.58c.87-1.37,2.23-2.89,3.91-3.18,1.82-.31,3.84.6,5.38,1.49.2.12.26.3.24.47.37.44.58,1,.8,1.54.35.86.65,1.74.76,2.67.21,1.76-.19,3.77-.72,5.45-.49,1.55-1.48,2.95-2.51,4.2-.99,1.2-2.28,2.04-3.85,2.2-3.27.34-5.34-2.23-6.1-5.13-.42-1.61,0-3.49.33-5.08.33-1.62.86-3.23,1.75-4.64ZM173.28,26.41c2.87.3,4.96-2.49,6.04-4.83.67-1.46,1.01-3.36,1.04-4.96.02-.84-.14-1.65-.41-2.44-.26-.77-.54-1.86-1.19-2.38-.09-.08-.13-.16-.15-.25-1.14-.62-2.47-1.17-3.75-1.18-1.46,0-2.65,1.18-3.45,2.29-1.6,2.22-2.18,5.14-2.38,7.83-.19,2.57,1.48,5.64,4.24,5.92Z"/><path class="cls-1" d="M158.2,18.53c.13-.99.52-4.81,2.29-4.08.35.14.49.44.61.78.18.51.31,1.03.47,1.55.33,1.11.66,2.22.98,3.33.62,2.15,1.22,4.3,1.8,6.47.17.64-.81.91-.98.27-.97-3.61-1.99-7.21-3.08-10.79-.04-.13-.1-.55-.22-.53-.14.03-.21.38-.25.51-.14.4-.25.81-.34,1.22-.19.85-.3,1.72-.39,2.59-.16,1.71-.25,3.43-.62,5.11-.14.64-1.13.37-.98-.27.45-2.02.46-4.09.74-6.13Z"/><path class="cls-1" d="M142.92,3.49c.17-.11.34-.18.52-.23-.1-.11-.18-.22-.23-.35-.24-.56,0-1.23.51-1.55.7-.45,1.47-.29,2.09.14.07-.85.45-1.59,1.41-1.48,1.42.15,2.05,1.92,1.91,3.14-.04.32-.11.63-.24.93-.08.18-.23.4-.19.61.03.15.33.48.42.6.61.81,1.36,1.48,2.13,2.14,1.48,1.26,2.86,2.61,4.15,4.06.85-1.33,2.02-2.38,3.56-2.37.36-.45.73-.88,1.12-1.3.73-.8,1.48-1.61,2.42-2.16.84-.5,1.79-.79,2.73-1.06.04-.08.1-.15.2-.2,5.11-2.67,10.76-.71,15.55,1.69,3.73,1.87,7.31,4.03,10.71,6.45,2.08-1.73,2.99-4.4,4.61-6.5.8-1.04,1.87-2.14,3.29-2.12,1.52.02,2.19,1.28,2.34,2.63.19,1.73.28,3.49.4,5.23.21-.13.42-.27.63-.4-.15-1.14-.21-2.75.94-3.3.9-.43,1.84.13,2.35.94.2-.22.44-.42.72-.55.81-.36,1.72-.19,2.37.4.63.56.91,1.47.64,2.28-.1.31-.29.59-.51.83.36.19.66.49.84.89.4.89.08,1.99-.83,2.43-.84.41-1.84.28-2.72.12-.83-.14-1.65-.45-2.26-1.04-.68.35-1.34.74-1.98,1.15.11.08.18.21.16.39-.15,1.42.06,2.82.2,4.24.14,1.39.06,2.73-.11,4.12-.16,1.37-.35,2.75-.55,4.11-.2,1.29-.24,2.89-.84,4.07-1.26,2.5-3.79.42-5.25-.7-2.07-1.59-3.92-3.45-5.71-5.35-3.49,2.87-6.22,6.88-10.48,8.72-.56.24-1.14.44-1.72.61,0,.04.02.07.02.12-.44,9.65-.6,19.31-.49,28.97,0,.14-.05.25-.13.33.09.21.07.49-.17.66-1.78,1.26-3.39,3.17-5.76,3.17-1.06,0-2.15-.45-2.51-1.53-.16-.49-.17-1.06.11-1.5.27-.42.72-.7,1.13-.97,1.11-.74,2.3-1.36,3.51-1.92,0,0,0-.01,0-.02-.24-8.86.47-17.71.23-26.57-1.33.1-2.66.1-3.99,0-1.21-.08-2.41-.24-3.61-.42.16,4,.24,8,.24,12,0,1.98-.03,3.96-.07,5.94-.04,2.09-.08,4.17.42,6.22.06.24-.04.42-.2.53-.03.17-.13.32-.33.39-1.24.43-2.56.38-3.85.28-1.19-.09-2.61-.17-3.65-.81-.48-.29-.66-.92-.35-1.41.31-.48,1.12-.66,1.64-.81,1.02-.29,2.26-.52,3.34-.31-.48-3.46-.31-7-.31-10.48,0-4,0-8,0-12,0-.04.01-.08.02-.12-.87-.22-1.72-.53-2.48-1.05-2.63-1.8-4.26-5.11-5.22-8.08-.05-.05-.08-.12-.11-.2-.16-.61-.29-1.23-.4-1.85-.08-.04-.16-.09-.23-.19-.82-1.27-1.61-2.61-1.71-4.16-.11-1.62.25-3.43.63-5,0-.03.02-.06.02-.09-1.42-1.11-2.68-2.39-3.83-3.79-.58-.71-1.14-1.43-1.69-2.17-.56-.75-1.07-1.61-1.7-2.3-.39-.41-1.14-.27-1.68-.28-.45-.01-.91,0-1.36-.07-.68-.12-1.36-.52-1.52-1.24-.14-.62.21-1.23.72-1.57ZM156.19,12.19c-.17.26-.31.53-.45.8.08.63.08,1.26.03,1.89.18-.56.38-1.11.62-1.65.44-1,1-1.95,1.62-2.84-.77.37-1.39,1.12-1.83,1.81ZM201.36,12.36c-.14-1.94-.2-3.9-.44-5.83-.1-.77-.37-1.54-1.25-1.61-.82-.06-1.51.53-2.03,1.09-2,2.16-2.86,5.16-5.1,7.11,1.12.81,2.22,1.65,3.29,2.51.02.02.02.03.04.05,1.86-1.06,3.68-2.17,5.48-3.31,0,0,0-.01,0-.02ZM208.54,14.53c.53-.06,1-.38.93-.97-.07-.6-.71-.93-1.27-.85-.27.04-.55-.07-.63-.36-.07-.24.08-.59.36-.63,1-.15,1.53-1.32.77-2.08-.71-.71-1.97-.24-2.05.77-.06.65-1.07.66-1.02,0,.04-.46-.18-.89-.51-1.2-.22-.21-.58-.41-.85-.17-.24.21-.3.6-.32.89-.03.4,0,.81.04,1.22.21.21.26.61-.06.82-3.64,2.33-7.29,4.66-11.17,6.58-1.93.96-3.88,1.86-5.61,3.16-.73.55-1.45,1.09-2.22,1.59-.47.31-.95.61-1.35,1-.34.34-1.21,1.29-1,1.85.25.65,2.59-.92,2.99-1.15.89-.51,1.77-1.01,2.66-1.52,2.02-1.16,4.06-2.29,6.06-3.48,3.48-2.08,6.48-4.91,10.13-6.71.3-.15.58.01.71.24.41.44.93.67,1.51.81.61.15,1.3.26,1.93.18ZM174.97,63.06c0,.13-.04.22-.1.3.06.2.01.41-.24.52-1.19.54-2.35,1.13-3.44,1.84-.34.22-1.03.53-1.09,1-.07.54.34.98.82,1.14,1.06.35,2.21-.1,3.1-.66.99-.62,1.83-1.45,2.78-2.14-.03-.06-.05-.14-.05-.23-.11-9.61.05-19.22.48-28.81-.67.16-1.35.29-2.04.37.25,8.89-.46,17.78-.23,26.67ZM159.64,59.78c-.06.03,0,.03,0,0h0ZM164.84,58.56c.06.33-.18.56-.44.62-.11.08-.25.11-.42.06-.91-.31-2-.15-2.91.07-.24.06-.47.12-.71.2-.22.07-.44.2-.66.25-.03,0-.04.01-.06.02.06.06.21.1.27.12.22.09.44.16.66.21.92.25,1.89.31,2.85.37.91.05,1.82.03,2.69-.23-.86-3.78-.35-7.88-.34-11.73.01-4.18-.07-8.36-.24-12.54,0-.02,0-.03,0-.05-.18-.03-.36-.05-.53-.08-.19-.03-.38-.07-.56-.11,0,3.82,0,7.63,0,11.45,0,3.76-.25,7.64.38,11.36ZM164.03,34.63c4.04.93,8.61,1.39,12.7.48,3.98-.88,6.81-3.33,9.59-6.16,2.51-2.55,5.1-5.12,8.6-6.22.63-.2.9.79.27.98-1.47.46-2.75,1.19-3.94,2.07,1.47,1.56,2.98,3.09,4.63,4.47.85.71,1.74,1.37,2.67,1.96.66.42,1.41.71,1.89-.13.3-.53.36-1.23.46-1.82.41-2.4.78-4.82,1-7.24.21-2.32-.43-4.6-.24-6.91-1.94,1.33-3.78,2.81-5.77,4.08-3.46,2.22-7.13,4.19-10.72,6.2-.76.43-2.62,1.72-3.43.7-.78-.97.28-2.67.96-3.37.54-.55,1.2-.97,1.84-1.39.83-.54,1.59-1.16,2.39-1.74,1.53-1.11,3.24-1.91,4.92-2.74,1.04-.51,2.07-1.05,3.08-1.62-4.17-3.33-8.65-6.25-13.38-8.72-4.64-2.41-10.29-4.86-15.38-2.36-.04.14-.14.26-.33.31-.97.27-1.96.53-2.83,1.05-.91.54-1.63,1.36-2.33,2.14-1.37,1.52-2.59,3.18-3.41,5.07-1.65,3.79-1.68,8.11-.66,12.07.02.04.05.07.06.12,1.15,3.65,3.33,7.78,7.35,8.7ZM154.98,22.07c-.11-1.55-.06-3.1.19-4.62-.2.5-.44.98-.74,1.44-.03.04-.06.06-.09.09-.01.3-.02.6,0,.89.04.79.3,1.51.64,2.2ZM143.31,5.04c.44.53,1.85.32,2.45.33.6.01,1.15-.06,1.59.41.48.51.86,1.15,1.27,1.71,1.69,2.29,3.44,4.58,5.66,6.38.16-.48.36-.97.6-1.45,0,0-.02-.01-.03-.02-1.05-1.2-2.17-2.33-3.35-3.4-1.14-1.03-2.34-1.96-3.27-3.2-.32-.42-.74-.9-.59-1.47.15-.59.5-.98.49-1.63-.01-.49-.31-1.64-.96-1.65-.7-.02-.28,1.67-.13,2.05.22.63-.75.87-.98.27-.18-.51-1.07-1.64-1.76-1.18-.58.38.9,1.08,1.17,1.25.49.3.18,1.08-.39.93-.39-.1-.78-.22-1.18-.16-.37.05-.93.4-.57.83Z"/><path class="cls-1" d="M172.28,16.03c.43-1.12,1.16-2.16,2.18-2.8.36-.23.77-.4,1.19-.42.48-.02.96.17,1.34.46.5.39.85.98.95,1.61l.03-.19c.34,1.64.15,3.39-.55,4.91-.33.72-.76,1.38-1.19,2.04-.43.66-.92,1.37-1.67,1.61-.52.17-1.12.07-1.56-.25-.32-.23-.55-.57-.76-.91-.2-.34-.39-.69-.49-1.07-.13-.47-.12-.97-.1-1.46.05-1.2.2-2.41.63-3.54Z"/></g></svg>