<?xml version="1.0" encoding="UTF-8"?><svg id="Calque_1" xmlns="http://www.w3.org/2000/svg" viewBox="0 0 252.28 171.45"><defs><style>.cls-1{fill:#fff;stroke-width:0px;}</style></defs><g id="trou"><circle class="cls-1" cx="100.94" cy="158.82" r="1.13"/><circle class="cls-1" cx="108.14" cy="158.82" r="1.13"/><circle class="cls-1" cx="115.34" cy="158.82" r="1.13"/><circle class="cls-1" cx="122.54" cy="158.82" r="1.13"/><circle class="cls-1" cx="129.74" cy="158.82" r="1.13"/><circle class="cls-1" cx="136.94" cy="158.82" r="1.13"/><circle class="cls-1" cx="144.14" cy="158.82" r="1.13"/><circle class="cls-1" cx="151.34" cy="158.82" r="1.13"/><circle class="cls-1" cx="2.4" cy="82.91" r="1.13"/><circle class="cls-1" cx="9.6" cy="82.91" r="1.13"/><circle class="cls-1" cx="16.8" cy="82.91" r="1.13"/><circle class="cls-1" cx="24" cy="82.91" r="1.13"/><circle class="cls-1" cx="31.2" cy="82.91" r="1.13"/><circle class="cls-1" cx="221.09" cy="82.91" r="1.13"/><circle class="cls-1" cx="228.29" cy="82.91" r="1.13"/><circle class="cls-1" cx="235.49" cy="82.91" r="1.13"/><circle class="cls-1" cx="242.69" cy="82.91" r="1.13"/><circle class="cls-1" cx="249.89" cy="82.91" r="1.13"/><circle class="cls-1" cx="147.69" cy="1.13" r="1.13"/><circle class="cls-1" cx="147.69" cy="8.33" r="1.13"/><circle class="cls-1" cx="147.69" cy="15.53" r="1.13"/><circle class="cls-1" cx="147.69" cy="22.73" r="1.13"/><circle class="cls-1" cx="147.69" cy="29.93" r="1.13"/><circle class="cls-1" cx="147.69" cy="37.13" r="1.13"/><circle class="cls-1" cx="104.6" cy="1.13" r="1.13"/><circle class="cls-1" cx="104.6" cy="8.33" r="1.13"/><circle class="cls-1" cx="104.6" cy="15.53" r="1.13"/><circle class="cls-1" cx="104.6" cy="22.73" r="1.13"/><circle class="cls-1" cx="104.6" cy="29.93" r="1.13"/><circle class="cls-1" cx="104.6" cy="37.13" r="1.13"/><circle class="cls-1" cx="147.69" cy="44.33" r="1.13"/><circle class="cls-1" cx="104.6" cy="44.33" r="1.13"/><circle class="cls-1" cx="4.25" cy="8.46" r="4.25"/><circle class="cls-1" cx="4.25" cy="167.2" r="4.25"/><circle class="cls-1" cx="248.03" cy="8.46" r="4.25"/><circle class="cls-1" cx="248.03" cy="167.2" r="4.25"/></g></svg>